# Blender 3.1.0
# www.blender.org
# c mwa ki lé fé sur blender =) 
mtllib boid1.mtl
o Boid
v -1.000000 -2.000000 1.000000
v -1.000000 -2.000000 -1.000000
v 1.000000 -2.000000 1.000000
v 1.000000 -2.000000 -1.000000
v 0.000000 2.000000 0.000000
vn -0.8944 0.8944 -0.0000
vn -0.0000 0.8944 -0.8944
vn 0.8944 0.8944 -0.0000
vn -0.0000 0.8944 0.8944
vn -0.0000 -2.0000 -0.0000
vt 0.375000 0.000000
vt 0.375000 1.000000
vt 0.125000 0.750000
vt 0.375000 0.250000
vt 0.125000 0.500000
vt 0.375000 0.750000
vt 0.375000 0.500000
vt 0.625000 0.250000
vt 0.625000 0.500000
vt 0.625000 0.750000
vt 0.625000 1.000000
s 0
f 1/1/1 5/8/1 2/4/1
f 2/4/2 5/9/2 4/7/2
f 4/7/3 5/10/3 3/6/3
f 3/6/4 5/11/4 1/2/4
f 2/5/5 4/7/5 3/6/5 1/3/5
